<svg xmlns="http://www.w3.org/2000/svg" viewBox="0 0 600 400" role="img" aria-label="Illustration of five lug nuts with a star-pattern tightening sequence">
<style>.lg-star{animation:lg 3s linear infinite}@keyframes lg{to{stroke-dashoffset:-48}}@media (prefers-reduced-motion: reduce){*{animation:none!important}}</style>
<rect width="600" height="400" fill="#101113"/><circle cx="300" cy="200" r="150" fill="#1b1d20" stroke="#4a4f55" stroke-width="3"/><circle cx="300" cy="200" r="44" fill="#26292d" stroke="#8e969f" stroke-width="2"/><path class="lg-star" d="M300 100 L358.78 280.9 L204.89 169.1 L395.11 169.1 L241.22 280.9 Z" fill="none" stroke="#f0a431" stroke-width="2" stroke-dasharray="6 6"/><g><polygon points="324,100 312,120.78 288,120.78 276,100 288,79.22 312,79.22" fill="#2b2e32" stroke="#c9ced4" stroke-width="2.5"/><circle cx="300" cy="100" r="9" fill="#101113"/><text x="334" y="106" fill="#c9ced4" font-family="Barlow Condensed, sans-serif" font-size="20" font-weight="700" text-anchor="middle">1</text></g><g><polygon points="382.78,280.9 370.78,301.69 346.78,301.69 334.78,280.9 346.78,260.12 370.78,260.12" fill="#2b2e32" stroke="#c9ced4" stroke-width="2.5"/><circle cx="358.78" cy="280.9" r="9" fill="#101113"/><text x="392.78" y="286.9" fill="#c9ced4" font-family="Barlow Condensed, sans-serif" font-size="20" font-weight="700" text-anchor="middle">2</text></g><g><polygon points="228.89,169.1 216.89,189.88 192.89,189.88 180.89,169.1 192.89,148.31 216.89,148.31" fill="#2b2e32" stroke="#c9ced4" stroke-width="2.5"/><circle cx="204.89" cy="169.1" r="9" fill="#101113"/><text x="170.89" y="175.1" fill="#c9ced4" font-family="Barlow Condensed, sans-serif" font-size="20" font-weight="700" text-anchor="middle">3</text></g><g><polygon points="419.11,169.1 407.11,189.88 383.11,189.88 371.11,169.1 383.11,148.31 407.11,148.31" fill="#2b2e32" stroke="#c9ced4" stroke-width="2.5"/><circle cx="395.11" cy="169.1" r="9" fill="#101113"/><text x="429.11" y="175.1" fill="#c9ced4" font-family="Barlow Condensed, sans-serif" font-size="20" font-weight="700" text-anchor="middle">4</text></g><g><polygon points="265.22,280.9 253.22,301.69 229.22,301.69 217.22,280.9 229.22,260.12 253.22,260.12" fill="#2b2e32" stroke="#c9ced4" stroke-width="2.5"/><circle cx="241.22" cy="280.9" r="9" fill="#101113"/><text x="207.22" y="286.9" fill="#c9ced4" font-family="Barlow Condensed, sans-serif" font-size="20" font-weight="700" text-anchor="middle">5</text></g>
</svg>
